<?xml version="1.0" encoding="UTF-8"?>
<svg id="Layer_1" xmlns="http://www.w3.org/2000/svg" version="1.1" viewBox="0 0 289 256">
  <!-- Generator: Adobe Illustrator 29.8.1, SVG Export Plug-In . SVG Version: 2.1.1 Build 2)  -->
  <defs>
    <style>
      .st0 {
        fill: #9ac256;
      }

      .st1 {
        fill: #176a68;
      }

      .st2 {
        fill: #db6b71;
      }

      .st3 {
        fill: #fff;
      }

      .st4 {
        fill: #f67e80;
        stroke: #db6b71;
        stroke-linejoin: round;
        stroke-width: .25px;
      }

      .st5 {
        fill: #022169;
      }

      .st6 {
        fill: #04318c;
      }

      .st7 {
        fill: #eb7834;
      }

      .st8 {
        fill: #f4c840;
      }

      .st9 {
        fill: #fbb03b;
      }

      .st10 {
        fill: #214789;
      }

      .st11 {
        fill: #04183f;
      }

      .st12 {
        fill: #fdfff8;
      }
    </style>
  </defs>
  <path class="st8" d="M238.04,119.9v15.24c0,10.33-8.45,18.79-18.79,18.79h-1.42c-12.93,28.04-41.29,47.51-74.2,47.51s-61.27-19.46-74.19-47.51h-1.03c-10.33,0-18.79-8.46-18.79-18.79v-15.24c0-8.81,6.15-16.26,14.37-18.26,8.25-36.37,40.77-63.52,79.63-63.52s71.33,27.1,79.62,63.42c8.43,1.84,14.79,9.39,14.79,18.36h.01Z"/>
  <g>
    <ellipse class="st10" cx="119.62" cy="65.99" rx="43.08" ry="20.9" transform="translate(-16.92 61.4) rotate(-26.96)"/>
    <ellipse class="st3" cx="104.77" cy="60.42" rx="9.14" ry="4.13" transform="translate(-15.86 69.07) rotate(-34.07)"/>
  </g>
  <g>
    <g>
      <path class="st8" d="M221.76,153.5h-6.04c-13.78,26.48-43.98,42.47-78.57,40.96-1.41-.08-13.24-2.11-17.88-3.48-21.22-5.67-37.94-19.61-47.35-37.48h-6.02c.43,2.3.72,3.72.76,3.85,2.95,10.96,8.78,23,13.81,33.55,4.49,9.42,13.98,31.72,26.13,32.4,1.03.06,4.84.04,5.92-.05,7.25-.65,15.86-14.21,24.28-17.48,9.45-3.66,15.9-.22,22.99,5.78,7.57,6.41,9.86,13.28,22.27,11.67,13.15-1.7,20.74-25.09,26.53-34.15,4.53-11.61,13.15-35.48,13.16-35.58h0Z"/>
      <path class="st7" d="M172.31,208.94c-1.48,0-2.68-1.2-2.68-2.68v-6.91c0-1.48,1.2-2.68,2.68-2.68s2.68,1.2,2.68,2.68v6.91c0,1.48-1.2,2.68-2.68,2.68Z"/>
    </g>
    <path class="st1" d="M189.02,204.92c-1.48,0-2.68-1.2-2.68-2.68v-6.91c0-1.48,1.2-2.68,2.68-2.68s2.68,1.2,2.68,2.68v6.91c0,1.48-1.2,2.68-2.68,2.68Z"/>
    <path class="st0" d="M180.86,207.07c-1.48,0-2.68-1.2-2.68-2.68v-6.91c0-1.48,1.2-2.68,2.68-2.68s2.68,1.2,2.68,2.68v6.91c0,1.48-1.2,2.68-2.68,2.68Z"/>
  </g>
  <g>
    <g>
      <path class="st5" d="M49.68,120.5c-20.06,8.04-33.81,29.94-34.32,50.23-.17,6.7,11.82,11.87,16.9,7.22,3.8-3.48,4.12-6.51,5.49-11.4,7.56-25.11,17.93-14.97,11.93-46.04h0Z"/>
      <path class="st6" d="M49.68,119.98c-20.34,6.32-31.31,28.61-35,48.26-.81,6.84,8.85,12.25,13.7,8.31,3.07-4.08,3.19-9.46,4.9-14.16,9.32-24.11,19.98-11.36,16.4-42.41Z"/>
    </g>
    <path class="st4" d="M4.31,174.78c-4.67,9.14-7.2,24.4,1.23,31.86,3.56,3.15,6.28,2.08,8.73,3.46.73.41,1.28,2.03,2.06,2.83,5.31,5.44,13.94,2.18,14.21-5.51.11-3.23-1.41-9.11-1.05-11.58.18-1.21,2.1-3.84,3.31-2.49.95,1.06,1.39,3.29,2.66,4.62,2.77,2.89,7.58,3.24,10.12-.13,5.05-6.66-2.03-23.17-8.87-27.15-2.3,7.25-7.14,10.68-14.68,7.78-2.28-.88-4.96-2.72-6.34-7.63-.72-2.55-.42-5.88-.31-6.05-.21.04-6.96,1.94-11.08,9.99h0Z"/>
    <path class="st2" d="M13.85,210.19c-2.91-5.06-2.79-9.52-.14-14.64-1.99,5.54-2.11,9.08.57,14.42l-.43.22h0Z"/>
  </g>
  <g>
    <g>
      <path class="st5" d="M237.92,120.5c20.63,8.04,34.76,29.94,35.28,50.23.17,6.7-12.15,11.87-17.38,7.22-3.9-3.48-4.24-6.51-5.65-11.4-7.78-25.11-18.43-14.97-12.26-46.04h0Z"/>
      <path class="st6" d="M237.93,119.98c20.91,6.32,32.19,28.61,35.99,48.26.83,6.84-9.1,12.25-14.08,8.31-3.16-4.08-3.28-9.46-5.05-14.16-9.58-24.11-20.54-11.36-16.86-42.41h0Z"/>
    </g>
    <path class="st4" d="M284.57,174.78c4.8,9.14,7.41,24.4-1.26,31.86-3.65,3.15-6.46,2.08-8.98,3.46-.75.41-1.32,2.03-2.12,2.83-5.46,5.44-14.33,2.18-14.6-5.51-.12-3.23,1.44-9.11,1.08-11.58-.18-1.21-2.16-3.84-3.41-2.49-.97,1.06-1.43,3.29-2.74,4.62-2.85,2.89-7.79,3.24-10.41-.13-5.19-6.66,2.09-23.17,9.12-27.15,2.36,7.25,7.34,10.68,15.09,7.78,2.35-.88,5.09-2.72,6.52-7.63.74-2.55.43-5.88.32-6.05.21.04,7.15,1.94,11.38,9.99h.01Z"/>
    <path class="st2" d="M274.32,209.96c2.77-5.35,2.63-8.86.58-14.41,2.72,5.14,2.83,9.58-.15,14.65l-.43-.23h0Z"/>
  </g>
  <g>
    <circle class="st5" cx="143.83" cy="112.64" r="80.1"/>
    <ellipse class="st10" cx="119.62" cy="65.99" rx="43.08" ry="20.9" transform="translate(-16.92 61.4) rotate(-26.96)"/>
    <ellipse class="st3" cx="104.77" cy="60.42" rx="9.14" ry="4.13" transform="translate(-15.86 69.07) rotate(-34.07)"/>
  </g>
  <g>
    <g>
      <path class="st11" d="M143.27,161.67c17.25.03,62.27.16,62.32-29.68v-16.59c0-7.36-6.03-13.38-13.38-13.38h-96.89c-7.28,0-13.22,5.95-13.22,13.22v16.75c.64,28.74,44.19,29.65,61.19,29.68h-.02Z"/>
      <path class="st9" d="M145.11,163.87h-1.84c-10.82-.02-24.84-.51-37.34-4.16-16.98-4.96-25.74-14.27-26.04-27.66v-16.79c0-8.5,6.92-15.42,15.42-15.42h96.89c8.59,0,15.58,6.99,15.58,15.58v16.59c-.02,13.86-8.85,23.32-26.25,28.13-12.79,3.53-27.56,3.74-36.42,3.74h0ZM143.27,159.48h.09c8.36,0,23.9.04,37.01-3.58,15.48-4.28,23.01-12.1,23.03-23.9v-16.58c0-6.17-5.02-11.19-11.19-11.19h-96.89c-6.08,0-11.03,4.95-11.03,11.03v16.75c.41,18.41,19.71,27.41,59,27.48h-.02Z"/>
    </g>
    <g>
      <path class="st3" d="M121.67,132.15c-1.35,0-2.44-1.09-2.44-2.44,0-6.62-3.66-12.21-7.99-12.21s-7.99,5.59-7.99,12.21c0,1.35-1.09,2.44-2.44,2.44s-2.44-1.09-2.44-2.44c0-9.42,5.77-17.09,12.87-17.09s12.87,7.67,12.87,17.09c0,1.35-1.09,2.44-2.44,2.44Z"/>
      <path class="st3" d="M186.85,132.15c-1.35,0-2.44-1.09-2.44-2.44,0-6.62-3.66-12.21-7.99-12.21s-7.99,5.59-7.99,12.21c0,1.35-1.09,2.44-2.44,2.44s-2.44-1.09-2.44-2.44c0-9.42,5.77-17.09,12.87-17.09s12.87,7.67,12.87,17.09c0,1.35-1.09,2.44-2.44,2.44h0Z"/>
      <path class="st3" d="M144.47,151.08c-7.87,0-14.27-5.68-14.27-12.66,0-1.35,1.09-2.44,2.44-2.44s2.44,1.09,2.44,2.44c0,4.29,4.21,7.78,9.39,7.78s9.39-3.49,9.39-7.78c0-1.35,1.09-2.44,2.44-2.44s2.44,1.09,2.44,2.44c0,6.98-6.4,12.66-14.27,12.66Z"/>
    </g>
  </g>
  <path class="st12" d="M144.91,67.88v5.25c0,.61.49,1.09,1.09,1.09h6.13c.97,0,1.46,1.17.79,1.86-3.88,3.97-7.96,6.8-12.66,6.8-6.4,0-11.68-4.88-12.32-11.11-.04-.42-.06-.85-.06-1.27,0-6.83,5.55-12.38,12.38-12.38,3.61,0,7.03,1.6,9.36,4.29.2.24.51.37.82.37h6.79c.83,0,1.35-.88.97-1.61-1.5-2.88-3.67-5.36-6.38-7.25-3.4-2.38-7.4-3.64-11.55-3.64-10.74,0-19.55,8.42-20.18,19.01l-.04,1.21c0,.3.03,1.11.04,1.21,0,.09.13,1.39.13,1.39,1.28,9.92,9.78,17.61,20.04,17.61,4.97,0,9.67-1.83,14.36-5.59,1.3-1.04,2.52-2.17,3.69-3.35.69-.69,1.87-.21,1.87.77v5.85c0,.61.49,1.09,1.09,1.09h5.25c.61,0,1.09-.49,1.09-1.09v-20.52c0-.61-.49-1.09-1.09-1.09h-20.52c-.61,0-1.09.49-1.09,1.09h0Z"/>
</svg>