<?xml version="1.0" encoding="UTF-8"?>
<svg id="Layer_1" data-name="Layer 1" xmlns="http://www.w3.org/2000/svg" viewBox="0 0 592.29 391.28">
  <defs>
    <style>
      .cls-1 {
        stroke: #fbb03b;
        stroke-miterlimit: 10;
        stroke-width: 9px;
      }

      .cls-1, .cls-2 {
        fill: #04183f;
      }

      .cls-3 {
        fill: #9ac256;
      }

      .cls-4 {
        fill: #176a68;
      }

      .cls-5 {
        fill: none;
        stroke: #fff;
        stroke-linecap: round;
        stroke-width: 10px;
      }

      .cls-5, .cls-6 {
        stroke-linejoin: round;
      }

      .cls-7 {
        fill: #db6b71;
      }

      .cls-8 {
        fill: #fff;
      }

      .cls-6 {
        fill: #f67e80;
        stroke: #db6b71;
        stroke-width: .25px;
      }

      .cls-9 {
        fill: #022169;
      }

      .cls-10 {
        fill: #04318c;
      }

      .cls-11 {
        fill: #eb7834;
      }

      .cls-12 {
        fill: #f4c840;
      }

      .cls-13 {
        fill: #fbb03b;
      }

      .cls-14 {
        fill: #214789;
      }

      .cls-15 {
        fill: #fdfff8;
      }
    </style>
  </defs>
  <path class="cls-12" d="M487.85,179.03v31.24c0,21.18-17.32,38.51-38.5,38.51h-2.92c-26.5,57.47-84.62,97.36-152.06,97.36s-125.56-39.89-152.05-97.36h-2.11c-21.18,0-38.5-17.33-38.5-38.51v-31.24c0-18.06,12.61-33.33,29.46-37.42C148.08,67.07,214.73,11.43,294.37,11.43s146.19,55.55,163.17,129.98c17.27,3.78,30.31,19.24,30.31,37.62Z"/>
  <g>
    <ellipse class="cls-14" cx="245.17" cy="68.57" rx="88.3" ry="42.83" transform="translate(-4.45 118.59) rotate(-26.96)"/>
    <ellipse class="cls-8" cx="214.73" cy="57.12" rx="18.74" ry="8.47" transform="translate(4.86 130.11) rotate(-34.07)"/>
  </g>
  <g>
    <path class="cls-12" d="M454.49,247.9h-12.37c-28.24,54.26-90.14,87.03-161.03,83.94-2.88-.17-27.14-4.32-36.64-7.13-43.48-11.63-77.76-40.19-97.05-76.81h-12.34c.88,4.71,1.47,7.62,1.55,7.89,6.04,22.46,18,47.13,28.31,68.76,9.21,19.3,28.65,65,53.55,66.4,2.12.12,9.91.09,12.13-.1,14.85-1.33,32.5-29.12,49.76-35.82,19.37-7.5,32.59-.45,47.11,11.84,15.52,13.13,20.21,27.21,45.65,23.92,26.94-3.49,42.5-51.42,54.38-69.99,9.29-23.8,26.96-72.71,26.97-72.91Z"/>
    <path class="cls-11" d="M353.14,361.52c-3.04,0-5.5-2.46-5.5-5.5v-14.17c0-3.04,2.46-5.5,5.5-5.5s5.5,2.46,5.5,5.5v14.17c0,3.04-2.46,5.5-5.5,5.5Z"/>
  </g>
  <path class="cls-4" d="M387.39,353.29c-3.04,0-5.5-2.46-5.5-5.5v-14.17c0-3.04,2.46-5.5,5.5-5.5s5.5,2.46,5.5,5.5v14.17c0,3.04-2.46,5.5-5.5,5.5Z"/>
  <path class="cls-3" d="M370.67,357.68c-3.04,0-5.5-2.46-5.5-5.5v-14.17c0-3.04,2.46-5.5,5.5-5.5s5.5,2.46,5.5,5.5v14.17c0,3.04-2.46,5.5-5.5,5.5Z"/>
  <path class="cls-1" d="M293.63,264.65c35.36.06,127.62.32,127.72-60.82v-33.99c0-15.09-12.35-27.43-27.43-27.43h-198.58c-14.91,0-27.1,12.2-27.1,27.1v34.32c1.31,58.9,90.56,60.76,125.4,60.82Z"/>
  <g>
    <path class="cls-5" d="M206.62,199.15c0-16.58,9.57-30.02,21.37-30.02s21.37,13.44,21.37,30.02"/>
    <path class="cls-5" d="M340.2,199.15c0-16.58,9.57-30.02,21.37-30.02s21.37,13.44,21.37,30.02"/>
    <path class="cls-5" d="M271.84,217c0,11.56,10.86,20.94,24.25,20.94s24.25-9.38,24.25-20.94"/>
  </g>
  <g>
    <g>
      <path class="cls-9" d="M101.83,180.26c-41.11,16.47-69.3,61.37-70.34,102.94-.34,13.74,24.23,24.32,34.63,14.79,7.78-7.13,8.45-13.35,11.26-23.37,15.5-51.47,36.74-30.67,24.45-94.36Z"/>
      <path class="cls-10" d="M101.82,179.2c-41.68,12.95-64.17,58.63-71.74,98.91-1.66,14.02,18.13,25.1,28.07,17.03,6.29-8.37,6.54-19.39,10.05-29.02,19.11-49.41,40.95-23.29,33.62-86.92Z"/>
    </g>
    <path class="cls-6" d="M8.84,291.52c-9.57,18.73-14.76,50,2.52,65.3,7.29,6.45,12.87,4.26,17.89,7.09,1.49.84,2.63,4.17,4.22,5.8,10.89,11.15,28.57,4.46,29.12-11.29.23-6.62-2.88-18.68-2.15-23.73.36-2.49,4.31-7.87,6.79-5.1,1.94,2.17,2.85,6.75,5.45,9.47,5.68,5.93,15.53,6.63,20.75-.27,10.34-13.65-4.17-47.49-18.18-55.65-4.71,14.85-14.64,21.89-30.09,15.94-4.68-1.8-10.16-5.57-13-15.63-1.48-5.22-.87-12.06-.63-12.39-.43.09-14.26,3.97-22.7,20.47Z"/>
    <path class="cls-7" d="M28.4,364.08c-5.96-10.36-5.71-19.51-.29-30.01-4.07,11.35-4.33,18.61,1.17,29.55,0,0-.89.46-.89.46h0Z"/>
  </g>
  <g>
    <g>
      <path class="cls-9" d="M487.61,180.26c42.27,16.47,71.24,61.37,72.31,102.94.35,13.74-24.91,24.32-35.61,14.79-8-7.13-8.68-13.35-11.58-23.37-15.94-51.47-37.78-30.67-25.13-94.36Z"/>
      <path class="cls-10" d="M487.62,179.2c42.85,12.95,65.97,58.63,73.75,98.91,1.7,14.02-18.64,25.1-28.86,17.03-6.47-8.37-6.72-19.39-10.34-29.02-19.64-49.41-42.1-23.29-34.56-86.92Z"/>
    </g>
    <path class="cls-6" d="M583.21,291.52c9.84,18.73,15.18,50-2.59,65.3-7.49,6.45-13.23,4.26-18.4,7.09-1.53.84-2.7,4.17-4.34,5.8-11.2,11.15-29.37,4.46-29.93-11.29-.24-6.62,2.96-18.68,2.21-23.73-.37-2.49-4.43-7.87-6.98-5.1-1.99,2.17-2.93,6.75-5.61,9.47-5.84,5.93-15.97,6.63-21.34-.27-10.63-13.65,4.29-47.49,18.69-55.65,4.84,14.85,15.05,21.89,30.93,15.94,4.81-1.8,10.44-5.57,13.37-15.63,1.52-5.22.89-12.06.65-12.39.44.09,14.66,3.97,23.33,20.47Z"/>
    <path class="cls-7" d="M562.2,363.61c5.67-10.97,5.39-18.16,1.19-29.54,5.57,10.54,5.81,19.64-.31,30.02,0,0-.88-.47-.88-.47h0Z"/>
  </g>
  <path class="cls-12" d="M487.85,179.03v31.24c0,21.18-17.32,38.51-38.5,38.51h-2.92c-26.5,57.47-84.62,97.36-152.06,97.36s-125.56-39.89-152.05-97.36h-2.11c-21.18,0-38.5-17.33-38.5-38.51v-31.24c0-18.06,12.61-33.33,29.46-37.42C148.08,67.07,214.73,11.43,294.37,11.43s146.19,55.55,163.17,129.98c17.27,3.78,30.31,19.24,30.31,37.62Z"/>
  <g>
    <circle class="cls-9" cx="294.78" cy="164.15" r="164.15"/>
    <ellipse class="cls-14" cx="245.17" cy="68.57" rx="88.3" ry="42.83" transform="translate(-4.45 118.59) rotate(-26.96)"/>
    <ellipse class="cls-8" cx="214.73" cy="57.12" rx="18.74" ry="8.47" transform="translate(4.86 130.11) rotate(-34.07)"/>
  </g>
  <g>
    <g>
      <path class="cls-2" d="M293.63,264.65c35.36.06,127.62.32,127.72-60.82v-33.99c0-15.09-12.35-27.43-27.43-27.43h-198.58c-14.91,0-27.1,12.2-27.1,27.1v34.32c1.31,58.9,90.56,60.76,125.4,60.82Z"/>
      <path class="cls-13" d="M297.4,269.16c-1.26,0-2.46,0-3.6,0h-.18c-22.17-.04-50.9-1.04-76.53-8.53-34.8-10.16-52.75-29.24-53.36-56.69v-34.42c0-17.43,14.18-31.6,31.6-31.6h198.58c17.61,0,31.93,14.33,31.93,31.93v33.99c-.04,28.41-18.14,47.8-53.79,57.66-26.21,7.24-56.48,7.67-74.65,7.67ZM293.63,260.15h.18c17.13.03,48.99.08,75.84-7.34,31.72-8.77,47.15-24.79,47.19-48.99v-33.98c0-12.65-10.29-22.93-22.93-22.93h-198.58c-12.46,0-22.6,10.14-22.6,22.6v34.32c.84,37.73,40.39,56.18,120.91,56.32h0Z"/>
    </g>
    <g>
      <path class="cls-8" d="M249.36,204.15c-2.76,0-5-2.24-5-5,0-13.56-7.5-25.02-16.37-25.02s-16.37,11.46-16.37,25.02c0,2.76-2.24,5-5,5s-5-2.24-5-5c0-19.31,11.83-35.02,26.37-35.02s26.37,15.71,26.37,35.02c0,2.76-2.24,5-5,5Z"/>
      <path class="cls-8" d="M382.94,204.15c-2.76,0-5-2.24-5-5,0-13.56-7.5-25.02-16.37-25.02s-16.37,11.46-16.37,25.02c0,2.76-2.24,5-5,5s-5-2.24-5-5c0-19.31,11.83-35.02,26.37-35.02s26.37,15.71,26.37,35.02c0,2.76-2.24,5-5,5Z"/>
      <path class="cls-8" d="M296.09,242.94c-16.13,0-29.25-11.64-29.25-25.94,0-2.76,2.24-5,5-5s5,2.24,5,5c0,8.79,8.63,15.94,19.25,15.94s19.25-7.15,19.25-15.94c0-2.76,2.24-5,5-5s5,2.24,5,5c0,14.3-13.12,25.94-29.25,25.94Z"/>
    </g>
  </g>
  <g>
    <g>
      <path class="cls-9" d="M101.83,180.26c-41.11,16.47-69.3,61.37-70.34,102.94-.34,13.74,24.23,24.32,34.63,14.79,7.78-7.13,8.45-13.35,11.26-23.37,15.5-51.47,36.74-30.67,24.45-94.36Z"/>
      <path class="cls-10" d="M101.82,179.2c-41.68,12.95-64.17,58.63-71.74,98.91-1.66,14.02,18.13,25.1,28.07,17.03,6.29-8.37,6.54-19.39,10.05-29.02,19.11-49.41,40.95-23.29,33.62-86.92Z"/>
    </g>
    <path class="cls-6" d="M8.84,291.52c-9.57,18.73-14.76,50,2.52,65.3,7.29,6.45,12.87,4.26,17.89,7.09,1.49.84,2.63,4.17,4.22,5.8,10.89,11.15,28.57,4.46,29.12-11.29.23-6.62-2.88-18.68-2.15-23.73.36-2.49,4.31-7.87,6.79-5.1,1.94,2.17,2.85,6.75,5.45,9.47,5.68,5.93,15.53,6.63,20.75-.27,10.34-13.65-4.17-47.49-18.18-55.65-4.71,14.85-14.64,21.89-30.09,15.94-4.68-1.8-10.16-5.57-13-15.63-1.48-5.22-.87-12.06-.63-12.39-.43.09-14.26,3.97-22.7,20.47Z"/>
    <path class="cls-7" d="M28.4,364.08c-5.96-10.36-5.71-19.51-.29-30.01-4.07,11.35-4.33,18.61,1.17,29.55,0,0-.89.46-.89.46h0Z"/>
  </g>
  <g>
    <g>
      <path class="cls-9" d="M487.61,180.26c42.27,16.47,71.24,61.37,72.31,102.94.35,13.74-24.91,24.32-35.61,14.79-8-7.13-8.68-13.35-11.58-23.37-15.94-51.47-37.78-30.67-25.13-94.36Z"/>
      <path class="cls-10" d="M487.62,179.2c42.85,12.95,65.97,58.63,73.75,98.91,1.7,14.02-18.64,25.1-28.86,17.03-6.47-8.37-6.72-19.39-10.34-29.02-19.64-49.41-42.1-23.29-34.56-86.92Z"/>
    </g>
    <path class="cls-6" d="M583.21,291.52c9.84,18.73,15.18,50-2.59,65.3-7.49,6.45-13.23,4.26-18.4,7.09-1.53.84-2.7,4.17-4.34,5.8-11.2,11.15-29.37,4.46-29.93-11.29-.24-6.62,2.96-18.68,2.21-23.73-.37-2.49-4.43-7.87-6.98-5.1-1.99,2.17-2.93,6.75-5.61,9.47-5.84,5.93-15.97,6.63-21.34-.27-10.63-13.65,4.29-47.49,18.69-55.65,4.84,14.85,15.05,21.89,30.93,15.94,4.81-1.8,10.44-5.57,13.37-15.63,1.52-5.22.89-12.06.65-12.39.44.09,14.66,3.97,23.33,20.47Z"/>
    <path class="cls-7" d="M562.2,363.61c5.67-10.97,5.39-18.16,1.19-29.54,5.57,10.54,5.81,19.64-.31,30.02,0,0-.88-.47-.88-.47h0Z"/>
  </g>
  <path class="cls-15" d="M297,72.42v10.76c0,1.24,1,2.24,2.24,2.24h12.56c1.98,0,2.99,2.39,1.61,3.81-7.95,8.14-16.31,13.94-25.95,13.94-13.11,0-23.93-10-25.24-22.77-.09-.86-.13-1.74-.13-2.6,0-13.99,11.38-25.37,25.37-25.37,7.39,0,14.4,3.28,19.18,8.79.42.49,1.04.76,1.68.76h13.91c1.7,0,2.76-1.8,1.98-3.3-3.08-5.91-7.53-10.99-13.07-14.86-6.97-4.87-15.16-7.45-23.68-7.45-22.02,0-40.07,17.26-41.36,38.97l-.08,2.47c0,.61.07,2.28.08,2.49.01.19.27,2.85.27,2.85,2.63,20.33,20.04,36.09,41.08,36.09,10.19,0,19.82-3.75,29.43-11.45,2.66-2.13,5.17-4.45,7.57-6.87,1.41-1.42,3.84-.43,3.84,1.57v11.98c0,1.24,1,2.24,2.24,2.24h10.76c1.24,0,2.24-1,2.24-2.24v-42.06c0-1.24-1-2.24-2.24-2.24h-42.06c-1.24,0-2.24,1-2.24,2.24Z"/>
</svg>