<?xml version="1.0" encoding="UTF-8"?>
<svg id="Layer_1" xmlns="http://www.w3.org/2000/svg" version="1.1" viewBox="0 0 289 256">
  <!-- Generator: Adobe Illustrator 29.8.1, SVG Export Plug-In . SVG Version: 2.1.1 Build 2)  -->
  <defs>
    <style>
      .st0 {
        fill: #9ac256;
      }

      .st1 {
        fill: #176a68;
      }

      .st2 {
        fill: #db6b71;
      }

      .st3 {
        fill: #fff;
      }

      .st4 {
        fill: #f67e80;
        stroke: #db6b71;
        stroke-linejoin: round;
        stroke-width: .25px;
      }

      .st5 {
        fill: #022169;
      }

      .st6 {
        fill: #04318c;
      }

      .st7 {
        fill: #eb7834;
      }

      .st8 {
        fill: #f4c840;
      }

      .st9 {
        fill: #fbb03b;
      }

      .st10 {
        fill: #214789;
      }

      .st11 {
        fill: #04183f;
      }

      .st12 {
        fill: #fdfff8;
      }
    </style>
  </defs>
  <g>
    <g>
      <path class="st5" d="M55.9,127.47c-21.08-6.56-36.68-27.38-38.62-47.52-.64-6.66,11.27-12.66,16.79-8.39,4.12,3.19,4.67,6.19,6.42,10.95,9.49,24.45,19.39,13.61,15.41,44.97h0Z"/>
      <path class="st6" d="M55.94,127.98c-21.25-4.83-34.03-26.22-39.18-45.52-1.31-6.75,8.2-12.82,13.43-9.25,3.42,3.84,3.92,9.19,6.01,13.74,11.22,23.32,21.23,9.88,19.74,41.03h0Z"/>
    </g>
    <path class="st4" d="M5.7,76.69c-5.42-8.76-9.07-23.76-.96-31.8,3.42-3.39,6.28-2.52,8.69-4.07.71-.46,1.17-2.12,1.91-2.96,5.06-5.79,14.11-3.16,14.92,4.46.34,3.2-.8,9.17-.27,11.6.26,1.2,2.42,3.67,3.56,2.24.89-1.12,1.19-3.38,2.4-4.79,2.63-3.08,7.53-3.76,10.37-.6,5.63,6.27-.47,23.21-7.18,27.66-2.86-7.05-8.05-10.12-15.56-6.69-2.28,1.04-4.88,3.06-5.96,8.05-.56,2.59-.02,5.88.11,6.04-.22-.03-7.26-1.43-12.03-9.15h0Z"/>
    <path class="st2" d="M13,40.77c-2.62,5.25-2.19,9.66.87,14.58-2.43-5.39-2.8-8.87-.43-14.39l-.44-.2h0Z"/>
  </g>
  <g>
    <g>
      <path class="st5" d="M233.06,127.47c21.08-6.56,36.68-27.38,38.62-47.52.64-6.66-11.27-12.66-16.79-8.39-4.12,3.19-4.67,6.19-6.42,10.95-9.49,24.45-19.39,13.61-15.41,44.97h0Z"/>
      <path class="st6" d="M233.02,127.98c21.25-4.83,34.03-26.22,39.18-45.52,1.31-6.75-8.2-12.82-13.43-9.25-3.42,3.84-3.92,9.19-6.01,13.74-11.22,23.32-21.23,9.88-19.74,41.03h0Z"/>
    </g>
    <path class="st4" d="M283.27,76.69c5.42-8.76,9.07-23.76.96-31.8-3.42-3.39-6.28-2.52-8.69-4.07-.71-.46-1.17-2.12-1.91-2.96-5.06-5.79-14.11-3.16-14.92,4.46-.34,3.2.8,9.17.27,11.6-.26,1.2-2.42,3.67-3.56,2.24-.89-1.12-1.19-3.38-2.4-4.79-2.63-3.08-7.53-3.76-10.37-.6-5.63,6.27.47,23.21,7.18,27.66,2.86-7.05,8.05-10.12,15.56-6.69,2.28,1.04,4.88,3.06,5.96,8.05.56,2.59.02,5.88-.11,6.04.22-.03,7.26-1.43,12.03-9.15h0Z"/>
    <path class="st2" d="M275.96,40.77c2.62,5.25,2.19,9.66-.87,14.58,2.43-5.39,2.8-8.87.43-14.39l.44-.2h0Z"/>
  </g>
  <path class="st8" d="M238.65,119.92v15.21c0,10.31-8.43,18.75-18.74,18.75h-1.42c-12.9,27.98-41.19,47.39-74.02,47.39s-61.12-19.42-74.02-47.39h-1.03c-10.31,0-18.74-8.44-18.74-18.75v-15.21c0-8.79,6.14-16.22,14.34-18.22,8.23-36.28,40.68-63.37,79.44-63.37s71.16,27.04,79.43,63.27c8.41,1.84,14.75,9.37,14.75,18.31Z"/>
  <g>
    <path class="st8" d="M222.24,153.44h-6.02c-13.75,26.41-43.88,42.36-78.39,40.86-1.4-.08-13.21-2.1-17.84-3.47-21.17-5.66-37.85-19.56-47.24-37.39h-6.01c.43,2.29.72,3.71.75,3.84,2.94,10.93,8.76,22.94,13.78,33.47,4.48,9.39,13.95,31.64,26.07,32.32,1.03.06,4.82.04,5.9-.05,7.23-.65,15.82-14.18,24.22-17.44,9.43-3.65,15.86-.22,22.93,5.76,7.55,6.39,9.84,13.25,22.22,11.64,13.11-1.7,20.69-25.03,26.47-34.07,4.52-11.59,13.12-35.39,13.13-35.49h0Z"/>
    <path class="st7" d="M172.9,208.75c-1.48,0-2.68-1.2-2.68-2.68v-6.9c0-1.48,1.2-2.68,2.68-2.68s2.68,1.2,2.68,2.68v6.9c0,1.48-1.2,2.68-2.68,2.68Z"/>
    <path class="st1" d="M189.58,204.74c-1.48,0-2.68-1.2-2.68-2.68v-6.9c0-1.48,1.2-2.68,2.68-2.68s2.68,1.2,2.68,2.68v6.9c0,1.48-1.2,2.68-2.68,2.68Z"/>
    <path class="st0" d="M181.44,206.88c-1.48,0-2.68-1.2-2.68-2.68v-6.9c0-1.48,1.2-2.68,2.68-2.68s2.68,1.2,2.68,2.68v6.9c0,1.48-1.2,2.68-2.68,2.68Z"/>
  </g>
  <g>
    <g>
      <circle class="st5" cx="144.5" cy="112.67" r="79.91"/>
      <ellipse class="st10" cx="120.35" cy="66.13" rx="42.98" ry="20.85" transform="translate(-16.9 61.75) rotate(-26.96)"/>
      <ellipse class="st3" cx="105.53" cy="60.58" rx="9.12" ry="4.12" transform="translate(-15.82 69.52) rotate(-34.07)"/>
    </g>
    <path class="st12" d="M145.58,68.02v5.24c0,.6.49,1.09,1.09,1.09h6.11c.96,0,1.46,1.16.78,1.85-3.87,3.96-7.94,6.79-12.63,6.79-6.38,0-11.65-4.87-12.29-11.08-.04-.42-.06-.85-.06-1.27,0-6.81,5.54-12.35,12.35-12.35,3.6,0,7.01,1.6,9.34,4.28.2.24.51.37.82.37h6.77c.83,0,1.34-.88.96-1.61-1.5-2.88-3.67-5.35-6.36-7.23-3.39-2.37-7.38-3.63-11.53-3.63-10.72,0-19.51,8.4-20.13,18.97l-.04,1.2c0,.3.03,1.11.04,1.21,0,.09.13,1.39.13,1.39,1.28,9.9,9.76,17.57,20,17.57,4.96,0,9.65-1.83,14.33-5.57,1.29-1.04,2.52-2.17,3.68-3.34.69-.69,1.87-.21,1.87.76v5.83c0,.6.49,1.09,1.09,1.09h5.24c.6,0,1.09-.49,1.09-1.09v-20.47c0-.6-.49-1.09-1.09-1.09h-20.47c-.6,0-1.09.49-1.09,1.09h0Z"/>
  </g>
  <g>
    <g>
      <path class="st11" d="M144.11,161.59c17.21.03,62.12.16,62.17-29.61v-16.55c0-7.35-6.01-13.35-13.35-13.35h-96.66c-7.26,0-13.19,5.94-13.19,13.19v16.71c.64,28.67,44.08,29.58,61.04,29.61h0Z"/>
      <path class="st9" d="M145.94,163.79h-1.84c-10.79-.02-24.78-.51-37.25-4.15-16.94-4.95-25.68-14.23-25.97-27.6v-16.76c0-8.48,6.9-15.38,15.38-15.38h96.66c8.57,0,15.54,6.98,15.54,15.54v16.55c-.02,13.83-8.83,23.27-26.18,28.07-12.76,3.52-27.49,3.73-36.34,3.73h0ZM144.11,159.4h.09c8.34.01,23.85.04,36.92-3.57,15.44-4.27,22.95-12.07,22.97-23.85v-16.54c0-6.16-5.01-11.16-11.16-11.16h-96.66c-6.07,0-11,4.94-11,11v16.71c.41,18.37,19.66,27.35,58.86,27.42h0Z"/>
    </g>
    <g>
      <path class="st3" d="M122.56,132.14c-1.34,0-2.43-1.09-2.43-2.43,0-6.6-3.65-12.18-7.97-12.18s-7.97,5.58-7.97,12.18c0,1.34-1.09,2.43-2.43,2.43s-2.43-1.09-2.43-2.43c0-9.4,5.76-17.05,12.84-17.05s12.84,7.65,12.84,17.05c0,1.34-1.09,2.43-2.43,2.43Z"/>
      <path class="st3" d="M187.58,132.14c-1.34,0-2.43-1.09-2.43-2.43,0-6.6-3.65-12.18-7.97-12.18s-7.97,5.58-7.97,12.18c0,1.34-1.09,2.43-2.43,2.43s-2.43-1.09-2.43-2.43c0-9.4,5.76-17.05,12.84-17.05s12.84,7.65,12.84,17.05c0,1.34-1.09,2.43-2.43,2.43Z"/>
      <g>
        <path class="st3" d="M131.23,140.09c0,6.41,6.02,11.6,13.44,11.6s13.44-5.19,13.44-11.6h-26.87Z"/>
        <path class="st3" d="M144.67,152.67c-7.94,0-14.41-5.64-14.41-12.58,0-.54.44-.97.97-.97h26.88c.54,0,.97.44.97.97,0,6.94-6.46,12.58-14.41,12.58h0ZM132.26,141.06c.58,5.41,5.92,9.66,12.41,9.66s11.83-4.25,12.41-9.66h-24.83Z"/>
      </g>
    </g>
  </g>
</svg>