<?xml version="1.0" encoding="UTF-8"?>
<svg id="Layer_1" data-name="Layer 1" xmlns="http://www.w3.org/2000/svg" viewBox="0 0 635.67 391.28">
  <defs>
    <style>
      .cls-1 {
        fill: #9ac256;
      }

      .cls-2 {
        fill: #176a68;
      }

      .cls-3 {
        fill: #db6b71;
      }

      .cls-4 {
        fill: #fff;
      }

      .cls-5 {
        fill: #f67e80;
        stroke: #db6b71;
        stroke-linejoin: round;
        stroke-width: .25px;
      }

      .cls-6 {
        fill: #022169;
      }

      .cls-7 {
        fill: #04318c;
      }

      .cls-8 {
        fill: #eb7834;
      }

      .cls-9 {
        fill: #f4c840;
      }

      .cls-10 {
        fill: #fbb03b;
      }

      .cls-11 {
        fill: #214789;
      }

      .cls-12 {
        fill: #04183f;
      }

      .cls-13 {
        fill: #fdfff8;
      }
    </style>
  </defs>
  <g>
    <g>
      <path class="cls-6" d="M510.51,214.99c44.18-10.27,79.27-50.58,86.26-91.56,2.31-13.55-21.18-27.63-33.13-19.72-8.93,5.92-10.5,11.97-14.79,21.47-23.12,48.67-41.77,24.97-38.34,89.81Z"/>
      <path class="cls-7" d="M510.36,216.04c44.26-6.7,73.66-48.61,87.11-87.38,3.69-13.63-14.87-27.5-26.13-20.97-7.59,7.36-9.42,18.23-14.37,27.25-26.49,46.1-44.99,17.05-46.61,81.1Z"/>
    </g>
    <path class="cls-5" d="M621.01,118.51c12.42-17.13,22.16-47.32,6.75-65-6.49-7.45-12.48-6.1-17.2-9.64-1.39-1.05-2.08-4.51-3.47-6.36-9.49-12.63-28.43-8.6-31.24,6.9-1.18,6.51.26,18.91-1.2,23.81-.72,2.41-5.51,7.16-7.64,4.05-1.66-2.43-1.94-7.1-4.2-10.17-4.93-6.7-14.86-8.84-21.16-2.78-12.47,11.99-2.53,47.62,10.56,57.75,6.91-14.01,18.02-19.52,32.89-11.36,4.51,2.47,9.54,7,11,17.38.76,5.39-.84,12.06-1.13,12.36.45-.03,15.08-1.84,26.02-16.93Z"/>
    <path class="cls-3" d="M611.44,43.81c4.57,11.15,3.04,20.13-3.98,29.75,5.79-10.68,7.08-17.75,3.04-29.41,0,0,.94-.34.94-.34h0Z"/>
  </g>
  <path class="cls-9" d="M511.25,179.03v31.24c0,21.18-17.32,38.51-38.5,38.51h-2.92c-26.5,57.47-84.62,97.36-152.06,97.36s-125.56-39.89-152.05-97.36h-2.11c-21.18,0-38.5-17.33-38.5-38.51v-31.24c0-18.06,12.61-33.33,29.46-37.42C171.48,67.07,238.13,11.43,317.77,11.43s146.19,55.55,163.17,129.98c17.27,3.78,30.31,19.24,30.31,37.62Z"/>
  <g>
    <path class="cls-9" d="M477.54,247.9h-12.37c-28.24,54.26-90.14,87.03-161.03,83.94-2.88-.17-27.14-4.32-36.64-7.13-43.48-11.63-77.76-40.19-97.05-76.81h-12.34c.88,4.71,1.47,7.62,1.55,7.89,6.04,22.46,18,47.13,28.31,68.76,9.21,19.3,28.65,65,53.55,66.4,2.12.12,9.91.09,12.13-.1,14.85-1.33,32.5-29.12,49.76-35.82,19.37-7.5,32.59-.45,47.11,11.84,15.52,13.13,20.21,27.21,45.65,23.92,26.94-3.49,42.5-51.42,54.38-69.99,9.29-23.8,26.96-72.71,26.97-72.91Z"/>
    <path class="cls-8" d="M376.19,361.52c-3.04,0-5.5-2.46-5.5-5.5v-14.17c0-3.04,2.46-5.5,5.5-5.5s5.5,2.46,5.5,5.5v14.17c0,3.04-2.46,5.5-5.5,5.5Z"/>
    <path class="cls-2" d="M410.44,353.29c-3.04,0-5.5-2.46-5.5-5.5v-14.17c0-3.04,2.46-5.5,5.5-5.5s5.5,2.46,5.5,5.5v14.17c0,3.04-2.46,5.5-5.5,5.5Z"/>
    <path class="cls-1" d="M393.73,357.68c-3.04,0-5.5-2.46-5.5-5.5v-14.17c0-3.04,2.46-5.5,5.5-5.5s5.5,2.46,5.5,5.5v14.17c0,3.04-2.46,5.5-5.5,5.5Z"/>
  </g>
  <g>
    <g>
      <path class="cls-6" d="M125.16,214.99c-44.18-10.27-79.27-50.58-86.26-91.56-2.31-13.55,21.18-27.63,33.13-19.72,8.93,5.92,10.5,11.97,14.79,21.47,23.12,48.67,41.77,24.97,38.34,89.81Z"/>
      <path class="cls-7" d="M125.31,216.04c-44.26-6.7-73.66-48.61-87.11-87.38-3.69-13.63,14.87-27.5,26.13-20.97,7.59,7.36,9.42,18.23,14.37,27.25,26.49,46.1,44.99,17.05,46.61,81.1Z"/>
    </g>
    <path class="cls-5" d="M14.66,118.51C2.25,101.37-7.49,71.18,7.91,53.5c6.49-7.45,12.48-6.1,17.2-9.64,1.39-1.05,2.08-4.51,3.47-6.36,9.49-12.63,28.43-8.6,31.24,6.9,1.18,6.51-.26,18.91,1.2,23.81.72,2.41,5.51,7.16,7.64,4.05,1.66-2.43,1.94-7.1,4.2-10.17,4.93-6.7,14.86-8.84,21.16-2.78,12.47,11.99,2.53,47.62-10.56,57.75-6.91-14.01-18.02-19.52-32.89-11.36-4.51,2.47-9.54,7-11,17.38-.76,5.39.84,12.06,1.13,12.36-.45-.03-15.08-1.84-26.02-16.93Z"/>
    <path class="cls-3" d="M25.17,44.15c-4.05,11.67-2.74,18.74,3.04,29.41-7.02-9.64-8.55-18.61-3.98-29.75,0,0,.94.34.94.34h0Z"/>
  </g>
  <g>
    <g>
      <circle class="cls-6" cx="317.83" cy="164.15" r="164.15"/>
      <ellipse class="cls-11" cx="268.22" cy="68.57" rx="88.3" ry="42.83" transform="translate(-1.94 129.03) rotate(-26.96)"/>
      <ellipse class="cls-4" cx="237.78" cy="57.12" rx="18.74" ry="8.47" transform="translate(8.82 143.03) rotate(-34.07)"/>
    </g>
    <path class="cls-13" d="M320.05,72.42v10.76c0,1.24,1,2.24,2.24,2.24h12.56c1.98,0,2.99,2.39,1.61,3.81-7.95,8.14-16.31,13.94-25.95,13.94-13.11,0-23.93-10-25.24-22.77-.09-.86-.13-1.74-.13-2.6,0-13.99,11.38-25.37,25.37-25.37,7.39,0,14.4,3.28,19.18,8.79.42.49,1.04.76,1.68.76h13.91c1.7,0,2.76-1.8,1.98-3.3-3.08-5.91-7.53-10.99-13.07-14.86-6.97-4.87-15.16-7.45-23.68-7.45-22.02,0-40.07,17.26-41.36,38.97l-.08,2.47c0,.61.07,2.28.08,2.49.01.19.27,2.85.27,2.85,2.63,20.33,20.04,36.09,41.08,36.09,10.19,0,19.82-3.75,29.43-11.45,2.66-2.13,5.17-4.45,7.57-6.87,1.41-1.42,3.84-.43,3.84,1.57v11.98c0,1.24,1,2.24,2.24,2.24h10.76c1.24,0,2.24-1,2.24-2.24v-42.06c0-1.24-1-2.24-2.24-2.24h-42.06c-1.24,0-2.24,1-2.24,2.24Z"/>
  </g>
  <g>
    <g>
      <path class="cls-12" d="M317.03,264.65c35.36.06,127.62.32,127.72-60.82v-33.99c0-15.09-12.35-27.43-27.43-27.43h-198.58c-14.91,0-27.1,12.2-27.1,27.1v34.32c1.31,58.9,90.56,60.76,125.4,60.82Z"/>
      <path class="cls-10" d="M320.8,269.16c-1.26,0-2.46,0-3.6,0h-.18c-22.17-.04-50.9-1.04-76.53-8.53-34.8-10.16-52.75-29.24-53.36-56.69v-34.42c0-17.43,14.18-31.6,31.6-31.6h198.58c17.61,0,31.93,14.33,31.93,31.93v33.99c-.04,28.41-18.14,47.8-53.79,57.66-26.21,7.24-56.48,7.67-74.65,7.67ZM317.03,260.15h.18c17.13.03,49,.08,75.84-7.34,31.72-8.77,47.15-24.79,47.19-48.99v-33.98c0-12.65-10.29-22.93-22.93-22.93h-198.58c-12.46,0-22.6,10.14-22.6,22.6v34.32c.84,37.73,40.39,56.18,120.91,56.32h0Z"/>
    </g>
    <g>
      <path class="cls-4" d="M272.76,204.15c-2.76,0-5-2.24-5-5,0-13.56-7.5-25.02-16.37-25.02s-16.37,11.46-16.37,25.02c0,2.76-2.24,5-5,5s-5-2.24-5-5c0-19.31,11.83-35.02,26.37-35.02s26.37,15.71,26.37,35.02c0,2.76-2.24,5-5,5Z"/>
      <path class="cls-4" d="M406.34,204.15c-2.76,0-5-2.24-5-5,0-13.56-7.5-25.02-16.37-25.02s-16.37,11.46-16.37,25.02c0,2.76-2.24,5-5,5s-5-2.24-5-5c0-19.31,11.83-35.02,26.37-35.02s26.37,15.71,26.37,35.02c0,2.76-2.24,5-5,5Z"/>
      <g>
        <path class="cls-4" d="M290.58,220.47c0,13.16,12.36,23.84,27.6,23.84s27.6-10.67,27.6-23.84h-55.2Z"/>
        <path class="cls-4" d="M318.18,246.31c-16.32,0-29.6-11.59-29.6-25.84,0-1.1.9-2,2-2h55.21c1.1,0,2,.9,2,2,0,14.25-13.28,25.84-29.6,25.84ZM292.69,222.47c1.19,11.11,12.17,19.84,25.5,19.84s24.31-8.73,25.5-19.84h-50.99Z"/>
      </g>
    </g>
  </g>
</svg>